<svg width="145" height="221" viewBox="0 0 145 221" fill="none" xmlns="http://www.w3.org/2000/svg">
<rect y="-0.000488281" width="5.57589" height="5.57589" fill="black" fill-opacity="0.3"/>
<rect x="0.5" y="0.499512" width="4.57589" height="4.57589" stroke="black" stroke-opacity="0.3"/>
<rect y="122.672" width="5.57589" height="5.57589" fill="black" fill-opacity="0.3"/>
<rect x="0.5" y="123.172" width="4.57589" height="4.57589" stroke="black" stroke-opacity="0.3"/>
<rect y="61.3358" width="5.57589" height="5.57589" fill="black" fill-opacity="0.3"/>
<rect x="0.5" y="61.8358" width="4.57589" height="4.57589" stroke="black" stroke-opacity="0.3"/>
<rect y="184.008" width="5.57589" height="5.57589" fill="black" fill-opacity="0.3"/>
<rect x="0.5" y="184.508" width="4.57589" height="4.57589" stroke="black" stroke-opacity="0.3"/>
<rect x="122.673" y="-0.000488281" width="5.57589" height="5.57589" fill="black" fill-opacity="0.3"/>
<rect x="123.173" y="0.499512" width="4.57589" height="4.57589" stroke="black" stroke-opacity="0.3"/>
<rect x="122.673" y="122.672" width="5.57589" height="5.57589" fill="black" fill-opacity="0.3"/>
<rect x="123.173" y="123.172" width="4.57589" height="4.57589" stroke="black" stroke-opacity="0.3"/>
<rect x="122.673" y="61.3358" width="5.57589" height="5.57589" fill="black" fill-opacity="0.3"/>
<rect x="123.173" y="61.8358" width="4.57589" height="4.57589" stroke="black" stroke-opacity="0.3"/>
<rect x="122.673" y="184.008" width="5.57589" height="5.57589" fill="black" fill-opacity="0.3"/>
<rect x="123.173" y="184.508" width="4.57589" height="4.57589" stroke="black" stroke-opacity="0.3"/>
<rect x="61.3359" y="-0.000488281" width="5.57589" height="5.57589" fill="black" fill-opacity="0.3"/>
<rect x="61.8359" y="0.499512" width="4.57589" height="4.57589" stroke="black" stroke-opacity="0.3"/>
<rect x="61.3359" y="122.672" width="5.57589" height="5.57589" fill="black" fill-opacity="0.3"/>
<rect x="61.8359" y="123.172" width="4.57589" height="4.57589" stroke="black" stroke-opacity="0.3"/>
<rect x="61.3359" y="61.3358" width="5.57589" height="5.57589" fill="black" fill-opacity="0.3"/>
<rect x="61.8359" y="61.8358" width="4.57589" height="4.57589" stroke="black" stroke-opacity="0.3"/>
<rect x="61.3359" y="184.008" width="5.57589" height="5.57589" fill="black" fill-opacity="0.3"/>
<rect x="61.8359" y="184.508" width="4.57589" height="4.57589" stroke="black" stroke-opacity="0.3"/>
<rect y="30.6685" width="5.57589" height="5.57589" fill="black" fill-opacity="0.3"/>
<rect x="0.5" y="31.1685" width="4.57589" height="4.57589" stroke="black" stroke-opacity="0.3"/>
<rect y="153.341" width="5.57589" height="5.57589" fill="black" fill-opacity="0.3"/>
<rect x="0.5" y="153.841" width="4.57589" height="4.57589" stroke="black" stroke-opacity="0.3"/>
<rect y="92.0048" width="5.57589" height="5.57589" fill="black" fill-opacity="0.3"/>
<rect x="0.5" y="92.5048" width="4.57589" height="4.57589" stroke="black" stroke-opacity="0.3"/>
<rect y="214.677" width="5.57589" height="5.57589" fill="black" fill-opacity="0.3"/>
<rect x="0.5" y="215.177" width="4.57589" height="4.57589" stroke="black" stroke-opacity="0.3"/>
<rect x="122.673" y="30.6685" width="5.57589" height="5.57589" fill="black" fill-opacity="0.3"/>
<rect x="123.173" y="31.1685" width="4.57589" height="4.57589" stroke="black" stroke-opacity="0.3"/>
<rect x="122.673" y="153.341" width="5.57589" height="5.57589" fill="black" fill-opacity="0.3"/>
<rect x="123.173" y="153.841" width="4.57589" height="4.57589" stroke="black" stroke-opacity="0.3"/>
<rect x="122.673" y="92.0048" width="5.57589" height="5.57589" fill="black" fill-opacity="0.3"/>
<rect x="123.173" y="92.5048" width="4.57589" height="4.57589" stroke="black" stroke-opacity="0.3"/>
<rect x="122.673" y="214.677" width="5.57589" height="5.57589" fill="black" fill-opacity="0.3"/>
<rect x="123.173" y="215.177" width="4.57589" height="4.57589" stroke="black" stroke-opacity="0.3"/>
<rect x="61.3359" y="30.6685" width="5.57589" height="5.57589" fill="black" fill-opacity="0.3"/>
<rect x="61.8359" y="31.1685" width="4.57589" height="4.57589" stroke="black" stroke-opacity="0.3"/>
<rect x="61.3359" y="153.341" width="5.57589" height="5.57589" fill="black" fill-opacity="0.3"/>
<rect x="61.8359" y="153.841" width="4.57589" height="4.57589" stroke="black" stroke-opacity="0.3"/>
<rect x="61.3359" y="92.0048" width="5.57589" height="5.57589" fill="black" fill-opacity="0.3"/>
<rect x="61.8359" y="92.5048" width="4.57589" height="4.57589" stroke="black" stroke-opacity="0.3"/>
<rect x="61.3359" y="214.677" width="5.57589" height="5.57589" fill="black" fill-opacity="0.3"/>
<rect x="61.8359" y="215.177" width="4.57589" height="4.57589" stroke="black" stroke-opacity="0.3"/>
<rect x="30.6689" y="-0.000488281" width="5.57589" height="5.57589" fill="black" fill-opacity="0.3"/>
<rect x="31.1689" y="0.499512" width="4.57589" height="4.57589" stroke="black" stroke-opacity="0.3"/>
<rect x="30.6689" y="122.672" width="5.57589" height="5.57589" fill="black" fill-opacity="0.3"/>
<rect x="31.1689" y="123.172" width="4.57589" height="4.57589" stroke="black" stroke-opacity="0.3"/>
<rect x="30.6689" y="61.3358" width="5.57589" height="5.57589" fill="black" fill-opacity="0.3"/>
<rect x="31.1689" y="61.8358" width="4.57589" height="4.57589" stroke="black" stroke-opacity="0.3"/>
<rect x="30.6689" y="184.008" width="5.57589" height="5.57589" fill="black" fill-opacity="0.3"/>
<rect x="31.1689" y="184.508" width="4.57589" height="4.57589" stroke="black" stroke-opacity="0.3"/>
<rect x="92.0049" y="-0.000488281" width="5.57589" height="5.57589" fill="black" fill-opacity="0.3"/>
<rect x="92.5049" y="0.499512" width="4.57589" height="4.57589" stroke="black" stroke-opacity="0.3"/>
<rect x="92.0049" y="122.672" width="5.57589" height="5.57589" fill="black" fill-opacity="0.3"/>
<rect x="92.5049" y="123.172" width="4.57589" height="4.57589" stroke="black" stroke-opacity="0.3"/>
<rect x="92.0049" y="61.3358" width="5.57589" height="5.57589" fill="black" fill-opacity="0.3"/>
<rect x="92.5049" y="61.8358" width="4.57589" height="4.57589" stroke="black" stroke-opacity="0.3"/>
<rect x="92.0049" y="184.008" width="5.57589" height="5.57589" fill="black" fill-opacity="0.3"/>
<rect x="92.5049" y="184.508" width="4.57589" height="4.57589" stroke="black" stroke-opacity="0.3"/>
<rect x="30.6689" y="30.6685" width="5.57589" height="5.57589" fill="black" fill-opacity="0.3"/>
<rect x="31.1689" y="31.1685" width="4.57589" height="4.57589" stroke="black" stroke-opacity="0.3"/>
<rect x="30.6689" y="153.341" width="5.57589" height="5.57589" fill="black" fill-opacity="0.3"/>
<rect x="31.1689" y="153.841" width="4.57589" height="4.57589" stroke="black" stroke-opacity="0.3"/>
<rect x="30.6689" y="92.0048" width="5.57589" height="5.57589" fill="black" fill-opacity="0.3"/>
<rect x="31.1689" y="92.5048" width="4.57589" height="4.57589" stroke="black" stroke-opacity="0.3"/>
<rect x="30.6689" y="214.677" width="5.57589" height="5.57589" fill="black" fill-opacity="0.3"/>
<rect x="31.1689" y="215.177" width="4.57589" height="4.57589" stroke="black" stroke-opacity="0.3"/>
<rect x="92.0049" y="30.6685" width="5.57589" height="5.57589" fill="black" fill-opacity="0.3"/>
<rect x="92.5049" y="31.1685" width="4.57589" height="4.57589" stroke="black" stroke-opacity="0.3"/>
<rect x="92.0049" y="153.341" width="5.57589" height="5.57589" fill="black" fill-opacity="0.3"/>
<rect x="92.5049" y="153.841" width="4.57589" height="4.57589" stroke="black" stroke-opacity="0.3"/>
<rect x="92.0049" y="92.0048" width="5.57589" height="5.57589" fill="black" fill-opacity="0.3"/>
<rect x="92.5049" y="92.5048" width="4.57589" height="4.57589" stroke="black" stroke-opacity="0.3"/>
<rect x="92.0049" y="214.677" width="5.57589" height="5.57589" fill="black" fill-opacity="0.3"/>
<rect x="92.5049" y="215.177" width="4.57589" height="4.57589" stroke="black" stroke-opacity="0.3"/>
<path d="M4.182 65.5194L157.523 218.861" stroke="black" stroke-opacity="0.3" stroke-width="0.5"/>
<path d="M93.3985 32.0624L277.408 216.072" stroke="black" stroke-opacity="0.3" stroke-width="0.5"/>
<path d="M64.1233 94.7936L188.19 218.861" stroke="black" stroke-opacity="0.3" stroke-width="0.5"/>
<path d="M94.7928 64.1246L246.74 216.072" stroke="black" stroke-opacity="0.3" stroke-width="0.5"/>
<path d="M64.1239 64.1246L218.859 218.86" stroke="black" stroke-opacity="0.3" stroke-width="0.5"/>
<path d="M2.78734 94.7936L126.854 218.861" stroke="black" stroke-opacity="0.3" stroke-width="0.5"/>
<path d="M125.461 33.4573L308.077 216.073" stroke="black" stroke-opacity="0.3" stroke-width="0.5"/>
<path d="M4.18264 126.856L96.1875 218.861" stroke="black" stroke-opacity="0.3" stroke-width="0.5"/>
<path d="M124.067 1.39342L337.351 214.677" stroke="black" stroke-opacity="0.3" stroke-width="0.5"/>
<path d="M2.78798 156.13L65.5186 218.86" stroke="black" stroke-opacity="0.3" stroke-width="0.5"/>
<path d="M1.39427 185.404L34.8506 218.86" stroke="black" stroke-opacity="0.3" stroke-width="0.5"/>
<path d="M156.125 2.79174L2.78353 156.133" stroke="black" stroke-opacity="0.3" stroke-width="0.5"/>
<path d="M277.406 4.18305L65.5163 216.073" stroke="black" stroke-opacity="0.3" stroke-width="0.5"/>
<path d="M188.188 1.39362L2.78375 186.797" stroke="black" stroke-opacity="0.3" stroke-width="0.5"/>
<path d="M246.737 4.18233L33.4533 217.466" stroke="black" stroke-opacity="0.3" stroke-width="0.5"/>
<path d="M218.856 1.39428L2.78442 217.466" stroke="black" stroke-opacity="0.3" stroke-width="0.5"/>
<path d="M94.793 33.4561L2.78809 125.461" stroke="black" stroke-opacity="0.3" stroke-width="0.5"/>
<path d="M308.075 4.18305L96.1852 216.073" stroke="black" stroke-opacity="0.3" stroke-width="0.5"/>
<path d="M33.457 64.1253L2.78874 94.7936" stroke="black" stroke-opacity="0.3" stroke-width="0.5"/>
<path d="M338.742 4.18305L126.852 216.073" stroke="black" stroke-opacity="0.3" stroke-width="0.5"/>
<path d="M125.462 216.072V3.48462" stroke="black" stroke-opacity="0.3" stroke-width="0.5"/>
<path d="M64.126 216.072L64.126 94.7932" stroke="black" stroke-opacity="0.3" stroke-width="0.5"/>
<path d="M33.457 216.072L33.457 64.1243" stroke="black" stroke-opacity="0.3" stroke-width="0.5"/>
<path d="M94.793 216.072V3.48462" stroke="black" stroke-opacity="0.3" stroke-width="0.5"/>
<path d="M369.412 94.4441L3.83203 94.4441" stroke="black" stroke-opacity="0.3" stroke-width="0.5"/>
<path d="M369.412 155.78L3.83203 155.78" stroke="black" stroke-opacity="0.3" stroke-width="0.5"/>
<path d="M369.412 186.448L3.83203 186.448" stroke="black" stroke-opacity="0.3" stroke-width="0.5"/>
<path d="M369.412 33.4561L64.123 33.4561" stroke="black" stroke-opacity="0.3" stroke-width="0.5"/>
<path d="M369.412 64.1234L64.123 64.1234" stroke="black" stroke-opacity="0.3" stroke-width="0.5"/>
<path d="M369.412 125.111L3.83203 125.111" stroke="black" stroke-opacity="0.3" stroke-width="0.5"/>
</svg>
