<svg width="12" height="492" viewBox="0 0 12 492" fill="none" xmlns="http://www.w3.org/2000/svg">
<path d="M9 488.902L1.84608 488.902L1.84608 491.358L0.832142 491.358L0.832141 485.376L1.84608 485.376L1.84608 487.832L9 487.832L9 488.902ZM9.14646 481.934C9.14646 483.027 8.51556 483.906 7.42276 483.906C5.98071 483.906 5.54133 482.373 5.27095 479.895L5.01183 479.895C3.96409 479.895 3.64864 480.469 3.64864 481.258C3.64864 482.193 4.11055 482.632 4.85411 482.7L4.85411 483.759C3.54725 483.658 2.81496 482.509 2.81496 481.247C2.81496 479.568 3.55852 478.847 5.23715 478.87L6.713 478.881C7.72694 478.892 8.59442 478.836 9 478.802L9 479.793L8.10998 479.805C8.74088 480.176 9.14646 480.807 9.14646 481.934ZM6.26236 479.816L6.09337 479.816C6.27362 481.664 6.53274 482.79 7.40023 482.79C7.97479 482.79 8.31277 482.373 8.31277 481.641C8.31277 480.717 7.8734 479.816 6.26236 479.816ZM2.83749 474.178C2.83749 472.769 3.8627 471.834 4.9555 471.744L4.9555 472.792C4.21194 472.927 3.69371 473.479 3.69371 474.223C3.69371 475.124 4.47106 475.867 5.99197 475.867C7.53542 475.867 8.30151 475.124 8.30151 474.223C8.30151 473.4 7.70441 472.882 7.05098 472.747L7.05098 471.676C8.25644 471.845 9.14646 472.927 9.14646 474.279C9.14646 475.958 7.8396 476.96 5.99197 476.96C4.18941 476.96 2.83749 475.912 2.83749 474.178ZM2.93888 468.674L1.41797 468.674L1.41797 467.638L2.93888 467.638L2.93888 465.159L3.8289 465.159L3.8289 467.638L7.33263 467.638C7.95226 467.638 8.10998 467.604 8.10998 467.029L8.10998 465.159L9 465.159L9 467.255C9 468.359 8.74088 468.674 7.47909 468.674L3.8289 468.674L3.8289 470.398L2.93888 470.398L2.93888 468.674ZM0.83214 460.636L0.83214 459.6L2.06014 459.6L2.06014 460.636L0.83214 460.636ZM2.93888 462.349L2.93888 459.6L8.10998 459.6L8.10998 457.876L9 457.876L9 462.349L8.10998 462.349L8.10998 460.636L3.8289 460.636L3.8289 462.349L2.93888 462.349ZM2.83749 453.071C2.83749 451.663 3.8627 450.728 4.9555 450.638L4.9555 451.685C4.21194 451.821 3.69371 452.373 3.69371 453.116C3.69371 454.018 4.47106 454.761 5.99197 454.761C7.53542 454.761 8.30151 454.018 8.30151 453.116C8.30151 452.294 7.70441 451.776 7.05098 451.64L7.05098 450.57C8.25644 450.739 9.14646 451.821 9.14646 453.173C9.14646 454.851 7.8396 455.854 5.99197 455.854C4.18941 455.854 2.83749 454.806 2.83749 453.071ZM9.14646 446.757C9.14646 447.85 8.51556 448.728 7.42276 448.728C5.98071 448.728 5.54133 447.196 5.27095 444.718L5.01183 444.718C3.96409 444.718 3.64864 445.292 3.64864 446.081C3.64864 447.016 4.11055 447.455 4.85411 447.523L4.85411 448.582C3.54725 448.48 2.81496 447.331 2.81496 446.07C2.81496 444.391 3.55851 443.67 5.23715 443.692L6.713 443.704C7.72694 443.715 8.59442 443.659 9 443.625L9 444.616L8.10998 444.627C8.74088 444.999 9.14646 445.63 9.14646 446.757ZM6.26236 444.639L6.09337 444.639C6.27362 446.486 6.53274 447.613 7.40022 447.613C7.97479 447.613 8.31277 447.196 8.31277 446.464C8.31277 445.54 7.8734 444.639 6.26236 444.639ZM0.832139 441.31L0.832139 438.561L8.10998 438.561L8.10998 436.837L9 436.837L9 441.31L8.10998 441.31L8.10998 439.597L1.71089 439.597L1.71089 441.31L0.832139 441.31ZM3.32193 424.467L7.44529 423.566L0.832139 422.958L0.832139 421.888L9 422.71L9 424.096L4.74144 425.042L9 425.988L9 427.385L0.832139 428.197L0.832139 427.126L7.44529 426.529L3.32193 425.628L3.32193 424.467ZM9.14645 418.615C9.14645 419.708 8.51556 420.587 7.42276 420.587C5.98071 420.587 5.54133 419.054 5.27095 416.576L5.01183 416.576C3.96409 416.576 3.64864 417.15 3.64864 417.939C3.64864 418.874 4.11055 419.313 4.8541 419.381L4.8541 420.44C3.54725 420.339 2.81496 419.19 2.81496 417.928C2.81496 416.249 3.55851 415.528 5.23715 415.551L6.713 415.562C7.72694 415.573 8.59442 415.517 9 415.483L9 416.474L8.10998 416.486C8.74088 416.857 9.14645 417.488 9.14645 418.615ZM6.26236 416.497L6.09337 416.497C6.27362 418.345 6.53274 419.471 7.40022 419.471C7.97479 419.471 8.31277 419.054 8.31277 418.322C8.31277 417.398 7.8734 416.497 6.26236 416.497ZM10.9715 412.548L10.9715 413.743L10.0815 413.743L10.0815 412.65C10.0815 412.019 10.0027 411.816 9.13519 411.501L9 411.456L2.93888 413.72L2.93888 412.582L7.61428 410.937L2.93888 409.326L2.93888 408.256L9.25911 410.498C10.4533 410.926 10.9715 411.264 10.9715 412.548ZM2.93888 405.299L3.85143 405.299C3.2656 404.961 2.83749 404.409 2.83749 403.508C2.83749 402.111 3.99789 401.063 5.99197 401.063C7.99732 401.063 9.14645 402.111 9.14645 403.508C9.14645 404.409 8.71835 404.961 8.14378 405.299L10.9715 405.299L10.9715 406.335L2.93888 406.335L2.93888 405.299ZM5.99197 405.344C7.59174 405.344 8.29024 404.589 8.29024 403.722C8.29024 402.685 7.43402 402.156 5.99197 402.156C4.54992 402.156 3.70497 402.685 3.70497 403.722C3.70497 404.589 4.3922 405.344 5.99197 405.344ZM5.99197 398.613C7.60301 398.613 8.27897 397.824 8.27897 396.9C8.27897 395.976 7.60301 395.188 5.99197 395.188C4.38093 395.188 3.70497 395.976 3.70497 396.9C3.70497 397.824 4.38093 398.613 5.99197 398.613ZM5.99197 399.705C3.7951 399.705 2.83749 398.286 2.83749 396.9C2.83749 395.515 3.7951 394.095 5.99197 394.095C8.18884 394.095 9.14645 395.515 9.14645 396.9C9.14645 398.286 8.18884 399.705 5.99197 399.705ZM0.832137 390.282L0.832137 389.245L2.06013 389.245L2.06013 390.282L0.832137 390.282ZM2.93888 391.994L2.93888 389.245L8.10998 389.245L8.10998 387.521L9 387.521L9 391.994L8.10998 391.994L8.10998 390.282L3.8289 390.282L3.8289 391.994L2.93888 391.994ZM2.93888 384.147L3.7951 384.147C3.27686 383.843 2.83749 383.325 2.83749 382.367C2.83749 380.903 3.80636 380.463 5.14702 380.463L9 380.463L9 381.5L5.50753 381.5C4.52739 381.5 3.71624 381.579 3.71624 382.705C3.71624 383.641 4.41473 384.147 5.71032 384.147L9 384.147L9 385.184L2.93888 385.184L2.93888 384.147ZM2.93888 377.213L1.41797 377.213L1.41797 376.177L2.93888 376.177L2.93888 373.698L3.8289 373.698L3.8289 376.177L7.33263 376.177C7.95226 376.177 8.10998 376.143 8.10998 375.569L8.10998 373.698L8.99999 373.698L8.99999 375.794C8.99999 376.898 8.74088 377.213 7.47908 377.213L3.8289 377.213L3.8289 378.937L2.93888 378.937L2.93888 377.213ZM0.832136 361.148L8.99999 358.467L8.99999 359.616L7.25376 360.168L7.25376 363.289L8.99999 363.83L8.99999 364.979L0.832136 362.298L0.832136 361.148ZM2.26292 361.723L6.25109 362.974L6.25109 360.484L2.26292 361.723ZM0.832136 356.884L0.832136 354.136L8.10998 354.136L8.10998 352.412L8.99999 352.412L8.99999 356.884L8.10998 356.884L8.10998 355.172L1.71088 355.172L1.71088 356.884L0.832136 356.884ZM2.93888 349.015L3.85143 349.015C3.26559 348.677 2.83748 348.125 2.83748 347.224C2.83748 345.827 3.99788 344.779 5.99197 344.779C7.99732 344.779 9.14645 345.827 9.14645 347.224C9.14645 348.125 8.71834 348.677 8.14378 349.015L10.9715 349.015L10.9715 350.052L2.93888 350.052L2.93888 349.015ZM5.99197 349.06C7.59174 349.06 8.29023 348.306 8.29023 347.438C8.29023 346.402 7.43402 345.872 5.99197 345.872C4.54992 345.872 3.70497 346.402 3.70497 347.438C3.70497 348.306 4.3922 349.06 5.99197 349.06ZM2.83748 340.143C2.83748 338.679 3.80636 338.251 5.14702 338.251L8.99999 338.251L8.99999 339.287L5.50753 339.287C4.52739 339.287 3.70497 339.355 3.70497 340.481C3.70497 341.417 4.41473 341.935 5.71032 341.935L8.99999 341.935L8.99999 342.971L0.832135 342.971L0.832135 341.935L3.7951 341.935C3.26559 341.619 2.83748 341.079 2.83748 340.143ZM9.14645 334.19C9.14645 335.282 8.51555 336.161 7.42275 336.161C5.9807 336.161 5.54133 334.629 5.27094 332.15L5.01183 332.15C3.96409 332.15 3.64864 332.725 3.64864 333.514C3.64864 334.449 4.11054 334.888 4.8541 334.956L4.8541 336.015C3.54724 335.913 2.81495 334.764 2.81495 333.502C2.81495 331.824 3.55851 331.103 5.23714 331.125L6.71299 331.136C7.72693 331.148 8.59442 331.091 8.99999 331.058L8.99999 332.049L8.10998 332.06C8.74087 332.432 9.14645 333.063 9.14645 334.19ZM6.26235 332.072L6.09336 332.072C6.27362 333.919 6.53274 335.046 7.40022 335.046C7.97479 335.046 8.31277 334.629 8.31277 333.897C8.31277 332.973 7.87339 332.072 6.26235 332.072ZM5.90184 320.716C3.6261 320.716 1.81228 319.848 0.832134 319.172L0.832134 318.316C2.0376 319.06 3.78383 319.668 5.90184 319.668C8.01985 319.668 9.76608 319.06 10.9715 318.316L10.9715 319.172C9.9914 319.848 8.17757 320.716 5.90184 320.716ZM8.99999 313.016L1.84607 313.016L1.84607 315.472L0.832134 315.472L0.832134 309.489L1.84607 309.489L1.84607 311.945L8.99999 311.945L8.99999 313.016ZM3.32192 304.865L7.44528 303.964L0.832133 303.355L0.832133 302.285L8.99999 303.107L8.99999 304.493L4.74144 305.439L8.99999 306.386L8.99999 307.783L0.832134 308.594L0.832134 307.524L7.44528 306.927L3.32192 306.025L3.32192 304.865ZM0.832133 300.68L0.832133 298.674C0.832133 296.883 1.31657 295.509 3.34445 295.509C5.37234 295.509 5.85677 296.883 5.85677 298.674L5.85677 299.609L8.99999 299.609L8.99999 300.68L0.832133 300.68ZM1.84607 298.539L1.84607 299.609L4.84283 299.609L4.84283 298.539C4.84283 297.446 4.67384 296.613 3.34445 296.613C2.01506 296.613 1.84607 297.446 1.84607 298.539ZM6.39754 289.577L6.39754 293.16L5.42867 293.16L5.42867 289.577L6.39754 289.577ZM0.832132 283.759L8.99999 281.077L8.99999 282.226L7.25376 282.778L7.25376 285.899L8.99999 286.44L8.99999 287.589L0.832133 284.908L0.832132 283.759ZM2.26292 284.333L6.25108 285.584L6.25108 283.094L2.26292 284.333ZM5.90184 276.092C8.17757 276.092 9.9914 276.971 10.9715 277.647L10.9715 278.492C9.76608 277.76 8.01985 277.151 5.90184 277.151C3.78383 277.151 2.0376 277.76 0.832132 278.492L0.832132 277.647C1.81228 276.971 3.6261 276.092 5.90184 276.092ZM4.23447 255.549L4.23447 256.845L2.93888 256.845L2.93888 255.549L4.23447 255.549ZM8.99999 255.549L8.99999 256.845L7.7044 256.845L7.7044 255.549L8.99999 255.549ZM0.83213 236.245L7.98605 236.245L7.98605 232.235L8.99999 232.235L8.99999 237.316L0.83213 237.316L0.83213 236.245ZM9.14645 228.658C9.14645 229.751 8.51555 230.629 7.42275 230.629C5.9807 230.629 5.54132 229.097 5.27094 226.619L5.01182 226.619C3.96408 226.619 3.64863 227.193 3.64863 227.982C3.64863 228.917 4.11054 229.356 4.8541 229.424L4.8541 230.483C3.54724 230.382 2.81495 229.232 2.81495 227.971C2.81495 226.292 3.5585 225.571 5.23714 225.594L6.71299 225.605C7.72693 225.616 8.59441 225.56 8.99999 225.526L8.99999 226.517L8.10997 226.529C8.74087 226.9 9.14645 227.531 9.14645 228.658ZM6.26235 226.54L6.09336 226.54C6.27361 228.387 6.53273 229.514 7.40021 229.514C7.97478 229.514 8.31276 229.097 8.31276 228.365C8.31276 227.441 7.87339 226.54 6.26235 226.54ZM2.93887 222.434L1.41796 222.434L1.41796 221.397L2.93887 221.397L2.93887 218.919L3.82889 218.919L3.82889 221.397L7.33262 221.397C7.95225 221.397 8.10997 221.363 8.10997 220.789L8.10997 218.919L8.99999 218.919L8.99999 221.014C8.99999 222.118 8.74087 222.434 7.47908 222.434L3.82889 222.434L3.82889 224.157L2.93887 224.157L2.93887 222.434ZM8.99999 215.071L8.99999 216.097L0.832129 212.886L0.832129 211.861L8.99999 215.071ZM0.832129 208.104L7.98605 208.104L7.98605 204.093L8.99999 204.093L8.99999 209.174L0.832129 209.174L0.832129 208.104ZM5.99196 201.62C7.603 201.62 8.27896 200.832 8.27896 199.908C8.27896 198.984 7.603 198.195 5.99196 198.195C4.38092 198.195 3.70496 198.984 3.70496 199.908C3.70496 200.832 4.38092 201.62 5.99196 201.62ZM5.99196 202.713C3.79509 202.713 2.83748 201.293 2.83748 199.908C2.83748 198.522 3.79509 197.102 5.99196 197.102C8.18883 197.102 9.14645 198.522 9.14645 199.908C9.14645 201.293 8.18883 202.713 5.99196 202.713ZM2.93887 194.19L3.79509 194.19C3.27685 193.886 2.83748 193.368 2.83748 192.41C2.83748 190.946 3.80636 190.506 5.14701 190.506L8.99999 190.506L8.99999 191.543L5.50752 191.543C4.52738 191.543 3.71623 191.622 3.71623 192.748C3.71623 193.683 4.41472 194.19 5.71031 194.19L8.99999 194.19L8.99999 195.227L2.93887 195.227L2.93887 194.19ZM3.85142 184.451L2.93887 184.451L2.93887 183.415L8.24516 183.415C9.48443 183.415 9.9914 183.572 10.3744 183.899C10.8814 184.327 11.1743 185.161 11.1743 186.017C11.1743 187.335 10.5434 188.27 9.34923 188.451L9.34923 187.358C9.90127 187.211 10.273 186.896 10.273 186.006C10.273 185.488 10.1153 185.014 9.82241 184.767C9.58582 184.564 9.30417 184.451 8.48175 184.451L7.89592 184.451C8.48175 184.789 8.89859 185.33 8.89859 186.242C8.89859 187.639 7.87339 188.687 5.86804 188.687C3.87395 188.687 2.83748 187.639 2.83748 186.242C2.83748 185.33 3.26559 184.789 3.85142 184.451ZM5.86804 184.406C4.26826 184.406 3.70496 185.161 3.70496 186.028C3.70496 187.065 4.42599 187.594 5.86804 187.594C7.31008 187.594 8.04238 187.065 8.04238 186.028C8.04238 185.161 7.45654 184.406 5.86804 184.406ZM4.23446 178.159L4.23446 179.455L2.93887 179.455L2.93887 178.159L4.23446 178.159ZM8.99999 178.159L8.99999 179.455L7.7044 179.455L7.70439 178.159L8.99999 178.159ZM0.832127 164.685L0.832127 164.009L8.10997 164.009L8.10997 162.297L8.99999 162.297L8.99999 167.13L8.10997 167.13L8.10997 165.046L2.61216 165.046L2.61216 167.13L1.9024 167.13C1.8686 165.767 1.72214 165.102 0.832127 164.685ZM8.25643 157.729C8.25643 156.692 7.68186 155.983 6.71298 155.983C5.56385 155.983 5.14701 156.963 5.14701 158.213L5.14701 158.371L4.23446 158.371L4.23446 158.247C4.23446 156.906 3.79509 156.185 2.84874 156.185C2.02632 156.185 1.56442 156.861 1.56442 157.695C1.56442 158.731 2.22911 159.295 3.14166 159.374L3.14166 160.433C1.69961 160.32 0.685669 159.261 0.685669 157.661C0.685669 156.343 1.26024 155.081 2.74735 155.081C3.58103 155.081 4.30206 155.532 4.64004 156.354C5.03435 155.205 5.86803 154.878 6.70172 154.878C8.32402 154.878 9.14644 156.298 9.14644 157.74C9.14644 159.554 7.89592 160.444 6.56653 160.545L6.56653 159.498C7.55794 159.385 8.25643 158.822 8.25643 157.729ZM8.99999 150.017L8.99999 151.313L7.70439 151.313L7.70439 150.017L8.99999 150.017ZM8.25643 143.635C8.25643 142.7 7.55794 141.912 6.31867 141.912C4.98928 141.912 4.44852 142.813 4.44852 143.658C4.44852 144.435 4.91042 144.976 5.30473 145.145L5.25967 146.227L0.832126 145.697L0.832126 141.168L1.71088 141.168L1.71088 144.818L4.1556 145.111C3.73876 144.683 3.54724 144.075 3.54724 143.421C3.54723 142.069 4.53864 140.808 6.30741 140.808C8.15503 140.808 9.14644 142.193 9.14644 143.647C9.14644 145.46 7.89592 146.35 6.56653 146.452L6.56653 145.404C7.55794 145.291 8.25643 144.728 8.25643 143.635ZM0.685668 136.589C0.685668 135 1.57568 133.941 2.76988 133.941C3.42331 133.941 4.21193 134.245 4.64004 135.011C5.07941 133.997 5.96943 133.693 6.70172 133.693C8.2339 133.693 9.14644 134.989 9.14644 136.589C9.14644 138.188 8.2339 139.484 6.70172 139.484C5.96943 139.484 5.07941 139.191 4.64004 138.166C4.21193 138.943 3.42331 139.247 2.76988 139.247C1.57568 139.247 0.685668 138.177 0.685668 136.589ZM5.10194 136.589C5.10194 137.681 5.75537 138.391 6.70172 138.391C7.64806 138.391 8.25643 137.681 8.25643 136.589C8.25643 135.496 7.64806 134.797 6.70172 134.797C5.75537 134.797 5.10194 135.496 5.10194 136.589ZM2.87127 134.978C2.03759 134.978 1.57568 135.62 1.57568 136.589C1.57568 137.558 2.07139 138.2 2.87127 138.2C3.68243 138.2 4.30206 137.558 4.30206 136.589C4.30206 135.62 3.68243 134.978 2.87127 134.978ZM2.22911 128.855L6.01449 131.626L6.01449 128.855L2.22911 128.855ZM6.01449 126.455L6.98337 126.455L6.98337 127.818L8.99998 127.818L8.99998 128.855L6.98337 128.855L6.98337 132.708L6.01449 132.708L0.832126 128.866L0.832126 127.818L6.01449 127.818L6.01449 126.455ZM0.832125 122.473L0.832125 121.797L8.10997 121.797L8.10997 120.084L8.99998 120.084L8.99998 124.917L8.10997 124.917L8.10997 122.833L2.61216 122.833L2.61216 124.917L1.9024 124.917C1.8686 123.554 1.72214 122.89 0.832125 122.473ZM2.34177 117.138C1.41796 117.138 0.685667 116.406 0.685667 115.494C0.685667 114.57 1.41796 113.837 2.34177 113.837C3.25432 113.837 3.98661 114.57 3.98661 115.494C3.98661 116.406 3.25432 117.138 2.34177 117.138ZM2.34177 116.316C2.82621 116.316 3.23179 115.978 3.23179 115.494C3.23179 114.998 2.82621 114.649 2.34177 114.649C1.84607 114.649 1.44049 114.998 1.44049 115.494C1.44049 115.978 1.84607 116.316 2.34177 116.316ZM8.99998 98.7752L8.99998 100.375L2.02632 102.989L8.99998 102.989L8.99998 104.059L0.832125 104.059L0.832125 102.459L7.78325 99.8455L0.832124 99.8455L0.832124 98.7752L8.99998 98.7752ZM8.99998 88.4333L8.99998 89.4585L0.832124 86.2477L0.832124 85.2225L8.99998 88.4333ZM0.832123 73.2246L0.832123 72.5486L8.10997 72.5486L8.10997 70.8362L8.99998 70.8362L8.99998 75.6693L8.10997 75.6693L8.10997 73.5851L2.61215 73.5851L2.61215 75.6693L1.90239 75.6693C1.8686 74.3061 1.72214 73.6414 0.832123 73.2246ZM2.22911 65.5357L6.01449 68.3071L6.01449 65.5357L2.22911 65.5357ZM6.01449 63.136L6.98337 63.136L6.98337 64.4992L8.99998 64.4992L8.99998 65.5357L6.98337 65.5357L6.98337 69.3887L6.01449 69.3887L0.832123 65.547L0.832123 64.4992L6.01449 64.4992L6.01449 63.136ZM2.22911 58.5003L6.01449 61.2717L6.01449 58.5003L2.22911 58.5003ZM6.01449 56.1006L6.98336 56.1006L6.98336 57.4638L8.99998 57.4638L8.99998 58.5003L6.98336 58.5003L6.98337 62.3532L6.01449 62.3532L0.832123 58.5115L0.832123 57.4638L6.01449 57.4638L6.01449 56.1006ZM8.99998 51.5211L8.99998 52.8167L7.70439 52.8167L7.70439 51.5211L8.99998 51.5211ZM3.44584 43.483C2.3305 43.483 1.56441 44.1364 1.56441 45.1616C1.56441 46.1756 2.34177 46.8628 3.44584 46.8628C4.53864 46.8628 5.32726 46.1756 5.32726 45.1842C5.32726 44.159 4.53864 43.483 3.44584 43.483ZM8.25642 45.3081C8.25642 44.0801 7.0059 43.4041 5.13574 43.3591C5.76664 43.7083 6.25107 44.3843 6.25107 45.4095C6.25107 46.8515 5.10194 47.9669 3.4909 47.9669C1.99252 47.9669 0.685664 46.8853 0.685664 45.1842C0.685664 43.2239 2.10518 42.2888 4.59497 42.2888C6.88197 42.2888 9.14644 43.1225 9.14644 45.3644C9.14644 46.8741 8.15503 47.674 7.12982 47.8429L7.12982 46.7163C7.86211 46.5924 8.25642 46.0629 8.25642 45.3081ZM0.685663 37.9685C0.685663 36.5377 1.49682 35.4674 2.88254 35.4674C4.77523 35.4674 6.4426 37.2925 8.10997 39.3767L8.10997 35.321L8.99998 35.321L8.99998 40.83L8.10997 40.83C5.98069 38.0924 4.44851 36.5715 3.01773 36.5715C2.17278 36.5715 1.56441 37.0559 1.56441 37.9797C1.56441 38.8247 2.08265 39.602 3.4233 39.6246L3.4233 40.6836C1.86859 40.7061 0.685664 39.6246 0.685663 37.9685ZM6.38627 32.713C7.5016 32.713 8.25642 32.0483 8.25642 31.0231C8.25642 30.0317 7.49033 29.322 6.38627 29.322C5.29346 29.322 4.49358 30.0205 4.49358 31.0119C4.49358 32.0258 5.29346 32.713 6.38627 32.713ZM1.56441 30.8654C1.56441 32.1159 2.82621 32.7806 4.6851 32.8257C4.0542 32.4765 3.56976 31.8118 3.56976 30.7753C3.56976 29.3332 4.7189 28.2179 6.3412 28.2179C7.83958 28.2179 9.14644 29.3445 9.14644 31.0119C9.14644 32.9496 7.71565 33.896 5.23713 33.896C2.93887 33.896 0.685663 33.051 0.685663 30.8091C0.685663 29.2882 1.68834 28.5108 2.70228 28.3531L2.70228 29.4684C1.98125 29.5924 1.56441 30.1219 1.56441 30.8654ZM6.38626 25.6776C7.5016 25.6776 8.25642 25.0129 8.25642 23.9877C8.25642 22.9963 7.49033 22.2865 6.38626 22.2865C5.29346 22.2865 4.49357 22.985 4.49357 23.9764C4.49358 24.9904 5.29346 25.6776 6.38626 25.6776ZM1.56441 23.83C1.56441 25.0805 2.82621 25.7452 4.6851 25.7903C4.0542 25.441 3.56976 24.7763 3.56976 23.7399C3.56976 22.2978 4.71889 21.1825 6.3412 21.1825C7.83958 21.1825 9.14644 22.3091 9.14644 23.9764C9.14644 25.9142 7.71565 26.8605 5.23713 26.8605C2.93887 26.8605 0.685663 26.0156 0.685663 23.7737C0.685663 22.2527 1.68834 21.4754 2.70228 21.3177L2.70228 22.433C1.98125 22.5569 1.56441 23.0864 1.56441 23.83ZM2.34177 18.6422C1.41795 18.6422 0.685663 17.9099 0.685663 16.9973C0.685663 16.0735 1.41795 15.3412 2.34177 15.3412C3.25431 15.3412 3.9866 16.0735 3.9866 16.9973C3.9866 17.9099 3.25431 18.6422 2.34177 18.6422ZM2.34177 17.8197C2.8262 17.8197 3.23178 17.4818 3.23178 16.9973C3.23178 16.5016 2.8262 16.1524 2.34177 16.1524C1.84606 16.1524 1.44049 16.5016 1.44049 16.9973C1.44049 17.4818 1.84606 17.8197 2.34177 17.8197ZM8.99998 5.29228L0.83212 5.29228L0.83212 0.425366L1.84606 0.425366L1.84606 4.22201L4.27952 4.22201L4.27952 0.650686L5.29346 0.650686L5.29346 4.22201L7.98604 4.22201L7.98604 0.425366L8.99998 0.425366L8.99998 5.29228Z" fill="black" fill-opacity="0.6"/>
</svg>
