<svg width="548" height="323" viewBox="0 0 548 323" fill="none" xmlns="http://www.w3.org/2000/svg">
<rect x="359.289" width="8.16388" height="8.16388" fill="white" fill-opacity="0.05"/>
<rect x="359.789" y="0.5" width="7.16388" height="7.16388" stroke="white" stroke-opacity="0.2"/>
<rect width="8.16388" height="8.16388" fill="white" fill-opacity="0.05"/>
<rect x="0.5" y="0.5" width="7.16388" height="7.16388" stroke="white" stroke-opacity="0.2"/>
<rect x="359.289" y="179.642" width="8.16388" height="8.16388" fill="white" fill-opacity="0.05"/>
<rect x="359.789" y="180.142" width="7.16388" height="7.16388" stroke="white" stroke-opacity="0.2"/>
<rect y="179.642" width="8.16388" height="8.16388" fill="white" fill-opacity="0.05"/>
<rect x="0.5" y="180.142" width="7.16388" height="7.16388" stroke="white" stroke-opacity="0.2"/>
<rect x="359.289" y="89.8193" width="8.16388" height="8.16388" fill="white" fill-opacity="0.05"/>
<rect x="359.789" y="90.3193" width="7.16388" height="7.16388" stroke="white" stroke-opacity="0.2"/>
<rect y="89.8193" width="8.16388" height="8.16388" fill="white" fill-opacity="0.05"/>
<rect x="0.5" y="90.3193" width="7.16388" height="7.16388" stroke="white" stroke-opacity="0.2"/>
<rect x="359.289" y="269.463" width="8.16388" height="8.16388" fill="white" fill-opacity="0.05"/>
<rect x="359.789" y="269.963" width="7.16388" height="7.16388" stroke="white" stroke-opacity="0.2"/>
<rect y="269.463" width="8.16388" height="8.16388" fill="white" fill-opacity="0.05"/>
<rect x="0.5" y="269.963" width="7.16388" height="7.16388" stroke="white" stroke-opacity="0.2"/>
<rect x="538.93" width="8.16388" height="8.16388" fill="white" fill-opacity="0.05"/>
<rect x="539.43" y="0.5" width="7.16388" height="7.16388" stroke="white" stroke-opacity="0.2"/>
<rect x="179.645" width="8.16388" height="8.16388" fill="white" fill-opacity="0.05"/>
<rect x="180.145" y="0.5" width="7.16388" height="7.16388" stroke="white" stroke-opacity="0.2"/>
<rect x="538.93" y="179.642" width="8.16388" height="8.16388" fill="white" fill-opacity="0.05"/>
<rect x="539.43" y="180.142" width="7.16388" height="7.16388" stroke="white" stroke-opacity="0.2"/>
<rect x="179.645" y="179.642" width="8.16388" height="8.16388" fill="white" fill-opacity="0.05"/>
<rect x="180.145" y="180.142" width="7.16388" height="7.16388" stroke="white" stroke-opacity="0.2"/>
<rect x="538.93" y="89.8193" width="8.16388" height="8.16388" fill="white" fill-opacity="0.05"/>
<rect x="539.43" y="90.3193" width="7.16388" height="7.16388" stroke="white" stroke-opacity="0.2"/>
<rect x="179.645" y="89.8193" width="8.16388" height="8.16388" fill="white" fill-opacity="0.05"/>
<rect x="180.145" y="90.3193" width="7.16388" height="7.16388" stroke="white" stroke-opacity="0.2"/>
<rect x="538.93" y="269.463" width="8.16388" height="8.16388" fill="white" fill-opacity="0.05"/>
<rect x="539.43" y="269.963" width="7.16388" height="7.16388" stroke="white" stroke-opacity="0.2"/>
<rect x="179.645" y="269.463" width="8.16388" height="8.16388" fill="white" fill-opacity="0.05"/>
<rect x="180.145" y="269.963" width="7.16388" height="7.16388" stroke="white" stroke-opacity="0.2"/>
<rect x="449.109" width="8.16388" height="8.16388" fill="white" fill-opacity="0.05"/>
<rect x="449.609" y="0.5" width="7.16388" height="7.16388" stroke="white" stroke-opacity="0.2"/>
<rect x="89.8203" width="8.16388" height="8.16388" fill="white" fill-opacity="0.05"/>
<rect x="90.3203" y="0.5" width="7.16388" height="7.16388" stroke="white" stroke-opacity="0.2"/>
<rect x="449.109" y="179.642" width="8.16388" height="8.16388" fill="white" fill-opacity="0.05"/>
<rect x="449.609" y="180.142" width="7.16388" height="7.16388" stroke="white" stroke-opacity="0.2"/>
<rect x="89.8203" y="179.642" width="8.16388" height="8.16388" fill="white" fill-opacity="0.05"/>
<rect x="90.3203" y="180.142" width="7.16388" height="7.16388" stroke="white" stroke-opacity="0.2"/>
<rect x="449.109" y="89.8193" width="8.16388" height="8.16388" fill="white" fill-opacity="0.05"/>
<rect x="449.609" y="90.3193" width="7.16388" height="7.16388" stroke="white" stroke-opacity="0.2"/>
<rect x="89.8203" y="89.8193" width="8.16388" height="8.16388" fill="white" fill-opacity="0.05"/>
<rect x="90.3203" y="90.3193" width="7.16388" height="7.16388" stroke="white" stroke-opacity="0.2"/>
<rect x="449.109" y="269.463" width="8.16388" height="8.16388" fill="white" fill-opacity="0.05"/>
<rect x="449.609" y="269.963" width="7.16388" height="7.16388" stroke="white" stroke-opacity="0.2"/>
<rect x="89.8203" y="269.463" width="8.16388" height="8.16388" fill="white" fill-opacity="0.05"/>
<rect x="90.3203" y="269.963" width="7.16388" height="7.16388" stroke="white" stroke-opacity="0.2"/>
<rect x="269.465" width="8.16388" height="8.16388" fill="white" fill-opacity="0.05"/>
<rect x="269.965" y="0.5" width="7.16388" height="7.16388" stroke="white" stroke-opacity="0.2"/>
<rect x="269.465" y="179.642" width="8.16388" height="8.16388" fill="white" fill-opacity="0.05"/>
<rect x="269.965" y="180.142" width="7.16388" height="7.16388" stroke="white" stroke-opacity="0.2"/>
<rect x="269.465" y="89.8193" width="8.16388" height="8.16388" fill="white" fill-opacity="0.05"/>
<rect x="269.965" y="90.3193" width="7.16388" height="7.16388" stroke="white" stroke-opacity="0.2"/>
<rect x="269.465" y="269.463" width="8.16388" height="8.16388" fill="white" fill-opacity="0.05"/>
<rect x="269.965" y="269.963" width="7.16388" height="7.16388" stroke="white" stroke-opacity="0.2"/>
<rect x="359.289" y="44.9116" width="8.16388" height="8.16388" fill="white" fill-opacity="0.05"/>
<rect x="359.789" y="45.4116" width="7.16388" height="7.16388" stroke="white" stroke-opacity="0.2"/>
<rect y="44.9116" width="8.16388" height="8.16388" fill="white" fill-opacity="0.05"/>
<rect x="0.5" y="45.4116" width="7.16388" height="7.16388" stroke="white" stroke-opacity="0.2"/>
<rect x="359.289" y="224.556" width="8.16388" height="8.16388" fill="white" fill-opacity="0.05"/>
<rect x="359.789" y="225.056" width="7.16388" height="7.16388" stroke="white" stroke-opacity="0.2"/>
<rect y="224.556" width="8.16388" height="8.16388" fill="white" fill-opacity="0.05"/>
<rect x="0.5" y="225.056" width="7.16388" height="7.16388" stroke="white" stroke-opacity="0.2"/>
<rect x="359.289" y="134.73" width="8.16388" height="8.16388" fill="white" fill-opacity="0.05"/>
<rect x="359.789" y="135.23" width="7.16388" height="7.16388" stroke="white" stroke-opacity="0.2"/>
<rect y="134.73" width="8.16388" height="8.16388" fill="white" fill-opacity="0.05"/>
<rect x="0.5" y="135.23" width="7.16388" height="7.16388" stroke="white" stroke-opacity="0.2"/>
<rect x="359.289" y="314.375" width="8.16388" height="8.16388" fill="white" fill-opacity="0.05"/>
<rect x="359.789" y="314.875" width="7.16388" height="7.16388" stroke="white" stroke-opacity="0.2"/>
<rect y="314.375" width="8.16388" height="8.16388" fill="white" fill-opacity="0.05"/>
<rect x="0.5" y="314.875" width="7.16388" height="7.16388" stroke="white" stroke-opacity="0.2"/>
<rect x="538.93" y="44.9116" width="8.16388" height="8.16388" fill="white" fill-opacity="0.05"/>
<rect x="539.43" y="45.4116" width="7.16388" height="7.16388" stroke="white" stroke-opacity="0.2"/>
<rect x="179.645" y="44.9116" width="8.16388" height="8.16388" fill="white" fill-opacity="0.05"/>
<rect x="180.145" y="45.4116" width="7.16388" height="7.16388" stroke="white" stroke-opacity="0.2"/>
<rect x="538.93" y="224.556" width="8.16388" height="8.16388" fill="white" fill-opacity="0.05"/>
<rect x="539.43" y="225.056" width="7.16388" height="7.16388" stroke="white" stroke-opacity="0.2"/>
<rect x="179.645" y="224.556" width="8.16388" height="8.16388" fill="white" fill-opacity="0.05"/>
<rect x="180.145" y="225.056" width="7.16388" height="7.16388" stroke="white" stroke-opacity="0.2"/>
<rect x="538.93" y="134.73" width="8.16388" height="8.16388" fill="white" fill-opacity="0.05"/>
<rect x="539.43" y="135.23" width="7.16388" height="7.16388" stroke="white" stroke-opacity="0.2"/>
<rect x="179.645" y="134.73" width="8.16388" height="8.16388" fill="white" fill-opacity="0.05"/>
<rect x="180.145" y="135.23" width="7.16388" height="7.16388" stroke="white" stroke-opacity="0.2"/>
<rect x="538.93" y="314.375" width="8.16388" height="8.16388" fill="white" fill-opacity="0.05"/>
<rect x="539.43" y="314.875" width="7.16388" height="7.16388" stroke="white" stroke-opacity="0.2"/>
<rect x="179.645" y="314.375" width="8.16388" height="8.16388" fill="white" fill-opacity="0.05"/>
<rect x="180.145" y="314.875" width="7.16388" height="7.16388" stroke="white" stroke-opacity="0.2"/>
<rect x="449.109" y="44.9116" width="8.16388" height="8.16388" fill="white" fill-opacity="0.05"/>
<rect x="449.609" y="45.4116" width="7.16388" height="7.16388" stroke="white" stroke-opacity="0.2"/>
<rect x="89.8203" y="44.9116" width="8.16388" height="8.16388" fill="white" fill-opacity="0.05"/>
<rect x="90.3203" y="45.4116" width="7.16388" height="7.16388" stroke="white" stroke-opacity="0.2"/>
<rect x="449.109" y="224.556" width="8.16388" height="8.16388" fill="white" fill-opacity="0.05"/>
<rect x="449.609" y="225.056" width="7.16388" height="7.16388" stroke="white" stroke-opacity="0.2"/>
<rect x="89.8203" y="224.556" width="8.16388" height="8.16388" fill="white" fill-opacity="0.05"/>
<rect x="90.3203" y="225.056" width="7.16388" height="7.16388" stroke="white" stroke-opacity="0.2"/>
<rect x="449.109" y="134.73" width="8.16388" height="8.16388" fill="white" fill-opacity="0.05"/>
<rect x="449.609" y="135.23" width="7.16388" height="7.16388" stroke="white" stroke-opacity="0.2"/>
<rect x="89.8203" y="134.73" width="8.16388" height="8.16388" fill="white" fill-opacity="0.05"/>
<rect x="90.3203" y="135.23" width="7.16388" height="7.16388" stroke="white" stroke-opacity="0.2"/>
<rect x="449.109" y="314.375" width="8.16388" height="8.16388" fill="white" fill-opacity="0.05"/>
<rect x="449.609" y="314.875" width="7.16388" height="7.16388" stroke="white" stroke-opacity="0.2"/>
<rect x="89.8203" y="314.375" width="8.16388" height="8.16388" fill="white" fill-opacity="0.05"/>
<rect x="90.3203" y="314.875" width="7.16388" height="7.16388" stroke="white" stroke-opacity="0.2"/>
<rect x="269.465" y="44.9116" width="8.16388" height="8.16388" fill="white" fill-opacity="0.05"/>
<rect x="269.965" y="45.4116" width="7.16388" height="7.16388" stroke="white" stroke-opacity="0.2"/>
<rect x="269.465" y="224.556" width="8.16388" height="8.16388" fill="white" fill-opacity="0.05"/>
<rect x="269.965" y="225.056" width="7.16388" height="7.16388" stroke="white" stroke-opacity="0.2"/>
<rect x="269.465" y="134.73" width="8.16388" height="8.16388" fill="white" fill-opacity="0.05"/>
<rect x="269.965" y="135.23" width="7.16388" height="7.16388" stroke="white" stroke-opacity="0.2"/>
<rect x="269.465" y="314.375" width="8.16388" height="8.16388" fill="white" fill-opacity="0.05"/>
<rect x="269.965" y="314.875" width="7.16388" height="7.16388" stroke="white" stroke-opacity="0.2"/>
<rect x="404.199" width="8.16388" height="8.16388" fill="white" fill-opacity="0.05"/>
<rect x="404.699" y="0.5" width="7.16388" height="7.16388" stroke="white" stroke-opacity="0.2"/>
<rect x="44.9102" width="8.16388" height="8.16388" fill="white" fill-opacity="0.05"/>
<rect x="45.4102" y="0.5" width="7.16388" height="7.16388" stroke="white" stroke-opacity="0.2"/>
<rect x="404.199" y="179.642" width="8.16388" height="8.16388" fill="white" fill-opacity="0.05"/>
<rect x="404.699" y="180.142" width="7.16388" height="7.16388" stroke="white" stroke-opacity="0.2"/>
<rect x="44.9102" y="179.642" width="8.16388" height="8.16388" fill="white" fill-opacity="0.05"/>
<rect x="45.4102" y="180.142" width="7.16388" height="7.16388" stroke="white" stroke-opacity="0.2"/>
<rect x="404.199" y="89.8193" width="8.16388" height="8.16388" fill="white" fill-opacity="0.05"/>
<rect x="404.699" y="90.3193" width="7.16388" height="7.16388" stroke="white" stroke-opacity="0.2"/>
<rect x="44.9102" y="89.8193" width="8.16388" height="8.16388" fill="white" fill-opacity="0.05"/>
<rect x="45.4102" y="90.3193" width="7.16388" height="7.16388" stroke="white" stroke-opacity="0.2"/>
<rect x="404.199" y="269.463" width="8.16388" height="8.16388" fill="white" fill-opacity="0.05"/>
<rect x="404.699" y="269.963" width="7.16388" height="7.16388" stroke="white" stroke-opacity="0.2"/>
<rect x="44.9102" y="269.463" width="8.16388" height="8.16388" fill="white" fill-opacity="0.05"/>
<rect x="45.4102" y="269.963" width="7.16388" height="7.16388" stroke="white" stroke-opacity="0.2"/>
<rect x="224.557" width="8.16388" height="8.16388" fill="white" fill-opacity="0.05"/>
<rect x="225.057" y="0.5" width="7.16388" height="7.16388" stroke="white" stroke-opacity="0.2"/>
<rect x="224.557" y="179.642" width="8.16388" height="8.16388" fill="white" fill-opacity="0.05"/>
<rect x="225.057" y="180.142" width="7.16388" height="7.16388" stroke="white" stroke-opacity="0.2"/>
<rect x="224.557" y="89.8193" width="8.16388" height="8.16388" fill="white" fill-opacity="0.05"/>
<rect x="225.057" y="90.3193" width="7.16388" height="7.16388" stroke="white" stroke-opacity="0.2"/>
<rect x="224.557" y="269.463" width="8.16388" height="8.16388" fill="white" fill-opacity="0.05"/>
<rect x="225.057" y="269.963" width="7.16388" height="7.16388" stroke="white" stroke-opacity="0.2"/>
<rect x="494.021" width="8.16388" height="8.16388" fill="white" fill-opacity="0.05"/>
<rect x="494.521" y="0.5" width="7.16388" height="7.16388" stroke="white" stroke-opacity="0.2"/>
<rect x="134.732" width="8.16388" height="8.16388" fill="white" fill-opacity="0.05"/>
<rect x="135.232" y="0.5" width="7.16388" height="7.16388" stroke="white" stroke-opacity="0.2"/>
<rect x="494.021" y="179.642" width="8.16388" height="8.16388" fill="white" fill-opacity="0.05"/>
<rect x="494.521" y="180.142" width="7.16388" height="7.16388" stroke="white" stroke-opacity="0.2"/>
<rect x="134.732" y="179.642" width="8.16388" height="8.16388" fill="white" fill-opacity="0.05"/>
<rect x="135.232" y="180.142" width="7.16388" height="7.16388" stroke="white" stroke-opacity="0.2"/>
<rect x="494.021" y="89.8193" width="8.16388" height="8.16388" fill="white" fill-opacity="0.05"/>
<rect x="494.521" y="90.3193" width="7.16388" height="7.16388" stroke="white" stroke-opacity="0.2"/>
<rect x="134.73" y="89.8193" width="8.16388" height="8.16388" fill="white" fill-opacity="0.05"/>
<rect x="135.23" y="90.3193" width="7.16388" height="7.16388" stroke="white" stroke-opacity="0.2"/>
<rect x="494.021" y="269.463" width="8.16388" height="8.16388" fill="white" fill-opacity="0.05"/>
<rect x="494.521" y="269.963" width="7.16388" height="7.16388" stroke="white" stroke-opacity="0.2"/>
<rect x="134.732" y="269.463" width="8.16388" height="8.16388" fill="white" fill-opacity="0.05"/>
<rect x="135.232" y="269.963" width="7.16388" height="7.16388" stroke="white" stroke-opacity="0.2"/>
<rect x="314.377" width="8.16388" height="8.16388" fill="white" fill-opacity="0.05"/>
<rect x="314.877" y="0.5" width="7.16388" height="7.16388" stroke="white" stroke-opacity="0.2"/>
<rect x="314.377" y="179.642" width="8.16388" height="8.16388" fill="white" fill-opacity="0.05"/>
<rect x="314.877" y="180.142" width="7.16388" height="7.16388" stroke="white" stroke-opacity="0.2"/>
<rect x="314.377" y="89.8193" width="8.16388" height="8.16388" fill="white" fill-opacity="0.05"/>
<rect x="314.877" y="90.3193" width="7.16388" height="7.16388" stroke="white" stroke-opacity="0.2"/>
<rect x="314.377" y="269.463" width="8.16388" height="8.16388" fill="white" fill-opacity="0.05"/>
<rect x="314.877" y="269.963" width="7.16388" height="7.16388" stroke="white" stroke-opacity="0.2"/>
<rect x="404.199" y="44.9116" width="8.16388" height="8.16388" fill="white" fill-opacity="0.05"/>
<rect x="404.699" y="45.4116" width="7.16388" height="7.16388" stroke="white" stroke-opacity="0.2"/>
<rect x="44.9102" y="44.9116" width="8.16388" height="8.16388" fill="white" fill-opacity="0.05"/>
<rect x="45.4102" y="45.4116" width="7.16388" height="7.16388" stroke="white" stroke-opacity="0.2"/>
<rect x="404.199" y="224.556" width="8.16388" height="8.16388" fill="white" fill-opacity="0.05"/>
<rect x="404.699" y="225.056" width="7.16388" height="7.16388" stroke="white" stroke-opacity="0.2"/>
<rect x="44.9102" y="224.556" width="8.16388" height="8.16388" fill="white" fill-opacity="0.05"/>
<rect x="45.4102" y="225.056" width="7.16388" height="7.16388" stroke="white" stroke-opacity="0.2"/>
<rect x="404.199" y="134.73" width="8.16388" height="8.16388" fill="white" fill-opacity="0.05"/>
<rect x="404.699" y="135.23" width="7.16388" height="7.16388" stroke="white" stroke-opacity="0.2"/>
<rect x="44.9102" y="134.73" width="8.16388" height="8.16388" fill="white" fill-opacity="0.05"/>
<rect x="45.4102" y="135.23" width="7.16388" height="7.16388" stroke="white" stroke-opacity="0.2"/>
<rect x="404.199" y="314.375" width="8.16388" height="8.16388" fill="white" fill-opacity="0.05"/>
<rect x="404.699" y="314.875" width="7.16388" height="7.16388" stroke="white" stroke-opacity="0.2"/>
<rect x="44.9102" y="314.375" width="8.16388" height="8.16388" fill="white" fill-opacity="0.05"/>
<rect x="45.4102" y="314.875" width="7.16388" height="7.16388" stroke="white" stroke-opacity="0.2"/>
<rect x="224.557" y="44.9116" width="8.16388" height="8.16388" fill="white" fill-opacity="0.05"/>
<rect x="225.057" y="45.4116" width="7.16388" height="7.16388" stroke="white" stroke-opacity="0.2"/>
<rect x="224.557" y="224.556" width="8.16388" height="8.16388" fill="white" fill-opacity="0.05"/>
<rect x="225.057" y="225.056" width="7.16388" height="7.16388" stroke="white" stroke-opacity="0.2"/>
<rect x="224.557" y="134.73" width="8.16388" height="8.16388" fill="white" fill-opacity="0.05"/>
<rect x="225.057" y="135.23" width="7.16388" height="7.16388" stroke="white" stroke-opacity="0.2"/>
<rect x="224.557" y="314.375" width="8.16388" height="8.16388" fill="white" fill-opacity="0.05"/>
<rect x="225.057" y="314.875" width="7.16388" height="7.16388" stroke="white" stroke-opacity="0.2"/>
<rect x="494.021" y="44.9116" width="8.16388" height="8.16388" fill="white" fill-opacity="0.05"/>
<rect x="494.521" y="45.4116" width="7.16388" height="7.16388" stroke="white" stroke-opacity="0.2"/>
<rect x="134.732" y="44.9116" width="8.16388" height="8.16388" fill="white" fill-opacity="0.05"/>
<rect x="135.232" y="45.4116" width="7.16388" height="7.16388" stroke="white" stroke-opacity="0.2"/>
<rect x="494.021" y="224.556" width="8.16388" height="8.16388" fill="white" fill-opacity="0.05"/>
<rect x="494.521" y="225.056" width="7.16388" height="7.16388" stroke="white" stroke-opacity="0.2"/>
<rect x="134.732" y="224.556" width="8.16388" height="8.16388" fill="white" fill-opacity="0.05"/>
<rect x="135.232" y="225.056" width="7.16388" height="7.16388" stroke="white" stroke-opacity="0.2"/>
<rect x="494.021" y="134.73" width="8.16388" height="8.16388" fill="white" fill-opacity="0.05"/>
<rect x="494.521" y="135.23" width="7.16388" height="7.16388" stroke="white" stroke-opacity="0.2"/>
<rect x="134.732" y="134.73" width="8.16388" height="8.16388" fill="white" fill-opacity="0.05"/>
<rect x="135.232" y="135.23" width="7.16388" height="7.16388" stroke="white" stroke-opacity="0.2"/>
<rect x="494.021" y="314.375" width="8.16388" height="8.16388" fill="white" fill-opacity="0.05"/>
<rect x="494.521" y="314.875" width="7.16388" height="7.16388" stroke="white" stroke-opacity="0.2"/>
<rect x="134.732" y="314.375" width="8.16388" height="8.16388" fill="white" fill-opacity="0.05"/>
<rect x="135.232" y="314.875" width="7.16388" height="7.16388" stroke="white" stroke-opacity="0.2"/>
<rect x="314.377" y="44.9116" width="8.16388" height="8.16388" fill="white" fill-opacity="0.05"/>
<rect x="314.877" y="45.4116" width="7.16388" height="7.16388" stroke="white" stroke-opacity="0.2"/>
<rect x="314.377" y="224.556" width="8.16388" height="8.16388" fill="white" fill-opacity="0.05"/>
<rect x="314.877" y="225.056" width="7.16388" height="7.16388" stroke="white" stroke-opacity="0.2"/>
<rect x="314.377" y="134.73" width="8.16388" height="8.16388" fill="white" fill-opacity="0.05"/>
<rect x="314.877" y="135.23" width="7.16388" height="7.16388" stroke="white" stroke-opacity="0.2"/>
<rect x="314.377" y="314.375" width="8.16388" height="8.16388" fill="white" fill-opacity="0.05"/>
<rect x="314.877" y="314.875" width="7.16388" height="7.16388" stroke="white" stroke-opacity="0.2"/>
<path d="M6.12331 95.9487L230.68 320.505" stroke="white" stroke-opacity="0.2" stroke-width="0.5"/>
<path d="M136.773 46.9536L406.24 316.421" stroke="white" stroke-opacity="0.2" stroke-width="0.5"/>
<path d="M93.9045 138.816L275.59 320.502" stroke="white" stroke-opacity="0.2" stroke-width="0.5"/>
<path d="M138.815 93.9053L361.33 316.42" stroke="white" stroke-opacity="0.2" stroke-width="0.5"/>
<path d="M93.9042 93.9053L320.502 320.503" stroke="white" stroke-opacity="0.2" stroke-width="0.5"/>
<path d="M4.08615 138.816L185.771 320.502" stroke="white" stroke-opacity="0.2" stroke-width="0.5"/>
<path d="M183.726 48.9936L451.152 316.42" stroke="white" stroke-opacity="0.2" stroke-width="0.5"/>
<path d="M6.12448 185.772L140.857 320.505" stroke="white" stroke-opacity="0.2" stroke-width="0.5"/>
<path d="M181.684 2.04247L494.02 314.378" stroke="white" stroke-opacity="0.2" stroke-width="0.5"/>
<path d="M4.08241 228.638L95.9473 320.503" stroke="white" stroke-opacity="0.2" stroke-width="0.5"/>
<path d="M228.637 4.08202L540.973 316.418" stroke="white" stroke-opacity="0.2" stroke-width="0.5"/>
<path d="M2.04056 271.509L51.0352 320.504" stroke="white" stroke-opacity="0.2" stroke-width="0.5"/>
<path d="M273.546 4.08202L540.973 271.508" stroke="white" stroke-opacity="0.2" stroke-width="0.5"/>
<path d="M316.418 4.08202L543.016 230.68" stroke="white" stroke-opacity="0.2" stroke-width="0.5"/>
<path d="M359.287 4.08202L540.973 185.767" stroke="white" stroke-opacity="0.2" stroke-width="0.5"/>
<path d="M404.199 4.08203L538.932 138.815" stroke="white" stroke-opacity="0.2" stroke-width="0.5"/>
<path d="M451.149 4.08203L540.973 93.9055" stroke="white" stroke-opacity="0.2" stroke-width="0.5"/>
<path d="M496.061 4.08203L540.973 48.9937" stroke="white" stroke-opacity="0.2" stroke-width="0.5"/>
<path d="M228.631 4.08767L4.07447 228.644" stroke="white" stroke-opacity="0.2" stroke-width="0.5"/>
<path d="M406.236 6.12738L95.9422 316.421" stroke="white" stroke-opacity="0.2" stroke-width="0.5"/>
<path d="M275.582 2.04022L4.07294 273.549" stroke="white" stroke-opacity="0.2" stroke-width="0.5"/>
<path d="M361.324 6.1255L48.9887 318.461" stroke="white" stroke-opacity="0.2" stroke-width="0.5"/>
<path d="M320.494 2.04264L4.07584 318.461" stroke="white" stroke-opacity="0.2" stroke-width="0.5"/>
<path d="M138.813 48.9936L4.07953 183.727" stroke="white" stroke-opacity="0.2" stroke-width="0.5"/>
<path d="M451.147 6.12738L140.852 316.421" stroke="white" stroke-opacity="0.2" stroke-width="0.5"/>
<path d="M48.9922 93.9091L4.08047 138.821" stroke="white" stroke-opacity="0.2" stroke-width="0.5"/>
<path d="M496.057 6.12738L185.763 316.421" stroke="white" stroke-opacity="0.2" stroke-width="0.5"/>
<path d="M538.93 8.16693L228.636 318.461" stroke="white" stroke-opacity="0.2" stroke-width="0.5"/>
<path d="M540.969 51.0333L271.501 320.501" stroke="white" stroke-opacity="0.2" stroke-width="0.5"/>
<path d="M540.969 95.9446L316.412 320.501" stroke="white" stroke-opacity="0.2" stroke-width="0.5"/>
<path d="M545.053 136.776L361.326 320.503" stroke="white" stroke-opacity="0.2" stroke-width="0.5"/>
<path d="M540.973 183.727L404.198 320.501" stroke="white" stroke-opacity="0.2" stroke-width="0.5"/>
<path d="M540.973 230.678L451.149 320.501" stroke="white" stroke-opacity="0.2" stroke-width="0.5"/>
<path d="M543.012 271.506L494.017 320.501" stroke="white" stroke-opacity="0.2" stroke-width="0.5"/>
<path d="M183.727 316.417V5.10254" stroke="white" stroke-opacity="0.2" stroke-width="0.5"/>
<path d="M93.9024 316.418L93.9023 138.815" stroke="white" stroke-opacity="0.2" stroke-width="0.5"/>
<path d="M48.9922 316.419L48.9922 93.9038" stroke="white" stroke-opacity="0.2" stroke-width="0.5"/>
<path d="M273.549 316.417V5.10254" stroke="white" stroke-opacity="0.2" stroke-width="0.5"/>
<path d="M228.637 316.417V5.10254" stroke="white" stroke-opacity="0.2" stroke-width="0.5"/>
<path d="M138.816 316.417V5.10254" stroke="white" stroke-opacity="0.2" stroke-width="0.5"/>
<path d="M453.193 316.417V5.10254" stroke="white" stroke-opacity="0.2" stroke-width="0.5"/>
<path d="M363.371 316.417V5.10254" stroke="white" stroke-opacity="0.2" stroke-width="0.5"/>
<path d="M318.459 316.417V5.10254" stroke="white" stroke-opacity="0.2" stroke-width="0.5"/>
<path d="M498.102 316.417V5.10254" stroke="white" stroke-opacity="0.2" stroke-width="0.5"/>
<path d="M408.281 316.417V5.10254" stroke="white" stroke-opacity="0.2" stroke-width="0.5"/>
<path d="M540.973 138.308L5.61328 138.308" stroke="white" stroke-opacity="0.2" stroke-width="0.5"/>
<path d="M540.973 228.127L5.61328 228.127" stroke="white" stroke-opacity="0.2" stroke-width="0.5"/>
<path d="M540.973 273.036L5.61328 273.036" stroke="white" stroke-opacity="0.2" stroke-width="0.5"/>
<path d="M540.973 48.9927L93.9043 48.9927" stroke="white" stroke-opacity="0.2" stroke-width="0.5"/>
<path d="M540.973 93.9038L93.9043 93.9038" stroke="white" stroke-opacity="0.2" stroke-width="0.5"/>
<path d="M540.973 183.215L5.61328 183.215" stroke="white" stroke-opacity="0.2" stroke-width="0.5"/>
</svg>
