<svg xmlns="http://www.w3.org/2000/svg" width="154" height="38" viewBox="0 0 154 38" fill="none">
<path d="M126.502 37.1595C124.679 37.1595 123.103 36.7723 121.773 35.9979C120.451 35.2157 119.431 34.1284 118.711 32.736C117.991 31.3358 117.631 29.7127 117.631 27.8667C117.631 26.005 117.991 24.378 118.711 22.9856C119.431 21.5854 120.451 20.4981 121.773 19.7237C123.103 18.9415 124.679 18.5504 126.502 18.5504C128.324 18.5504 129.897 18.9415 131.219 19.7237C132.548 20.4981 133.573 21.5854 134.293 22.9856C135.012 24.378 135.372 26.005 135.372 27.8667C135.372 29.7127 135.012 31.3358 134.293 32.736C133.573 34.1284 132.548 35.2157 131.219 35.9979C129.897 36.7723 128.324 37.1595 126.502 37.1595ZM126.525 33.2875C127.354 33.2875 128.047 33.0528 128.602 32.5835C129.157 32.1063 129.576 31.4571 129.858 30.6358C130.147 29.8144 130.292 28.8797 130.292 27.8315C130.292 26.7833 130.147 25.8485 129.858 25.0272C129.576 24.2059 129.157 23.5566 128.602 23.0795C128.047 22.6023 127.354 22.3637 126.525 22.3637C125.688 22.3637 124.984 22.6023 124.413 23.0795C123.85 23.5566 123.424 24.2059 123.134 25.0272C122.853 25.8485 122.712 26.7833 122.712 27.8315C122.712 28.8797 122.853 29.8144 123.134 30.6358C123.424 31.4571 123.85 32.1063 124.413 32.5835C124.984 33.0528 125.688 33.2875 126.525 33.2875Z" fill="black"/>
<path d="M106.669 36.8076V18.7851H111.515V21.9297H111.703C112.031 20.8111 112.583 19.9663 113.357 19.3952C114.132 18.8164 115.023 18.527 116.033 18.527C116.283 18.527 116.553 18.5426 116.842 18.5739C117.132 18.6052 117.386 18.6482 117.605 18.703V23.1382C117.37 23.0678 117.046 23.0052 116.631 22.9505C116.216 22.8957 115.837 22.8683 115.493 22.8683C114.758 22.8683 114.1 23.0287 113.522 23.3494C112.951 23.6623 112.497 24.1003 112.161 24.6635C111.832 25.2267 111.668 25.876 111.668 26.6113V36.8076H106.669Z" fill="black"/>
<path d="M96.1268 37.1595C94.2729 37.1595 92.6772 36.784 91.3396 36.0331C90.0098 35.2743 88.9851 34.2027 88.2654 32.8182C87.5458 31.4258 87.1859 29.7792 87.1859 27.8784C87.1859 26.0245 87.5458 24.3975 88.2654 22.9973C88.9851 21.5972 89.998 20.506 91.3044 19.7237C92.6185 18.9415 94.1595 18.5504 95.9273 18.5504C97.1163 18.5504 98.2231 18.742 99.2478 19.1253C100.28 19.5008 101.18 20.0679 101.947 20.8267C102.721 21.5854 103.323 22.5397 103.753 23.6896C104.184 24.8317 104.399 26.1693 104.399 27.7024V29.0752H89.1806V25.9776H99.6937C99.6937 25.258 99.5373 24.6205 99.2244 24.0651C98.9115 23.5097 98.4774 23.0756 97.922 22.7627C97.3744 22.442 96.7369 22.2816 96.0094 22.2816C95.2507 22.2816 94.578 22.4576 93.9913 22.8096C93.4124 23.1538 92.9588 23.6192 92.6302 24.2059C92.3017 24.7847 92.1335 25.4301 92.1257 26.1419V29.087C92.1257 29.9787 92.29 30.7492 92.6185 31.3984C92.9548 32.0477 93.4281 32.5483 94.0382 32.9003C94.6484 33.2523 95.3719 33.4283 96.2089 33.4283C96.7643 33.4283 97.2727 33.3501 97.7342 33.1936C98.1957 33.0372 98.5908 32.8025 98.9193 32.4896C99.2478 32.1767 99.4981 31.7934 99.6702 31.3398L104.293 31.6448C104.059 32.7556 103.577 33.7255 102.85 34.5547C102.13 35.376 101.199 36.0175 100.057 36.479C98.9232 36.9327 97.613 37.1595 96.1268 37.1595Z" fill="black"/>
<path d="M69.6049 36.8076H64.1606L72.4561 12.7776H79.0033L87.2871 36.8076H81.8428L75.8236 18.2689H75.6358L69.6049 36.8076ZM69.2646 27.3622H82.1244V31.3281H69.2646V27.3622Z" fill="black"/>
<path d="M51.8255 37.1009C50.4566 37.1009 49.2168 36.7489 48.106 36.0449C47.0031 35.3331 46.127 34.2888 45.4778 32.9121C44.8363 31.5276 44.5156 29.8301 44.5156 27.8198C44.5156 25.7547 44.8481 24.0378 45.513 22.6689C46.1779 21.2922 47.0618 20.2635 48.1647 19.583C49.2755 18.8946 50.4918 18.5505 51.8138 18.5505C52.8228 18.5505 53.6637 18.7226 54.3365 19.0667C55.017 19.4031 55.5645 19.8255 55.9791 20.3339C56.4015 20.8346 56.7222 21.3274 56.9413 21.8123H57.0938V12.7776H62.0805V36.8076H57.1525V33.9212H56.9413C56.7066 34.4218 56.3741 34.9185 55.9439 35.4113C55.5215 35.8963 54.9701 36.2991 54.2895 36.6198C53.6168 36.9406 52.7955 37.1009 51.8255 37.1009ZM53.4095 33.1233C54.2152 33.1233 54.8957 32.9043 55.4511 32.4662C56.0143 32.0204 56.4445 31.3985 56.7418 30.6006C57.0469 29.8028 57.1994 28.868 57.1994 27.7964C57.1994 26.7247 57.0508 25.7939 56.7535 25.0038C56.4563 24.2138 56.0261 23.6036 55.4629 23.1734C54.8997 22.7432 54.2152 22.5281 53.4095 22.5281C52.5882 22.5281 51.8959 22.751 51.3327 23.1969C50.7695 23.6427 50.3432 24.2607 50.0538 25.0507C49.7644 25.8408 49.6196 26.756 49.6196 27.7964C49.6196 28.8445 49.7644 29.7715 50.0538 30.5772C50.351 31.375 50.7773 32.0008 51.3327 32.4545C51.8959 32.9004 52.5882 33.1233 53.4095 33.1233Z" fill="black"/>
<path d="M37.3669 36.8075V19.8589H42.3316V36.8075H37.3669Z" fill="black"/>
<path d="M37.3669 17.8046V12.8398H42.3316V17.8046H37.3669Z" fill="black"/>
<path d="M24.4731 36.8076V18.7851H29.3189V21.9297H29.5067C29.8352 20.8111 30.3867 19.9663 31.1611 19.3952C31.9355 18.8164 32.8272 18.527 33.8363 18.527C34.0866 18.527 34.3565 18.5426 34.6459 18.5739C34.9353 18.6052 35.1895 18.6482 35.4086 18.703V23.1382C35.1739 23.0678 34.8493 23.0052 34.4347 22.9505C34.0201 22.8957 33.6407 22.8683 33.2965 22.8683C32.5613 22.8683 31.9042 23.0287 31.3253 23.3494C30.7543 23.6623 30.3006 24.1003 29.9643 24.6635C29.6357 25.2267 29.4715 25.876 29.4715 26.6113V36.8076H24.4731Z" fill="black"/>
<path d="M16.3563 20.5452C16.192 19.9741 15.9613 19.4696 15.664 19.0316C15.3668 18.5857 15.0031 18.2102 14.5728 17.9051C14.1504 17.5923 13.6655 17.3537 13.1179 17.1894C12.5782 17.0251 11.9798 16.943 11.3227 16.943C10.0946 16.943 9.01513 17.2481 8.08429 17.8582C7.16126 18.4683 6.44162 19.3562 5.92535 20.5217C5.40908 21.6794 5.15095 23.0952 5.15095 24.7692C5.15095 26.4431 5.40517 27.8668 5.91362 29.0401C6.42206 30.2134 7.14171 31.1091 8.07255 31.7271C9.0034 32.3372 10.1024 32.6423 11.3696 32.6423C12.5195 32.6423 13.5012 32.4389 14.3147 32.0321C15.136 31.6175 15.7618 31.0348 16.192 30.2838C16.6301 29.5329 16.8491 28.6451 16.8491 27.6204L17.8816 27.7729H11.6864V23.9478H21.7419V26.975C21.7419 29.087 21.2961 30.9018 20.4043 32.4193C19.5126 33.929 18.2845 35.0945 16.72 35.9159C15.1556 36.7294 13.3643 37.1361 11.3462 37.1361C9.09336 37.1361 7.11433 36.6394 5.40908 35.646C3.70383 34.6447 2.37405 33.225 1.41974 31.3868C0.473246 29.5407 0 27.3505 0 24.8161C0 22.8684 0.281601 21.1318 0.844802 19.6065C1.41583 18.0733 2.21369 16.7748 3.23841 15.711C4.26312 14.6472 5.45601 13.8376 6.81708 13.2822C8.17815 12.7268 9.65265 12.4491 11.2406 12.4491C12.6016 12.4491 13.8688 12.6486 15.0422 13.0475C16.2155 13.4386 17.2559 13.994 18.1632 14.7137C19.0784 15.4333 19.8255 16.2899 20.4043 17.2833C20.9832 18.2689 21.3547 19.3562 21.519 20.5452H16.3563Z" fill="black"/>
<path d="M154 37.8819L151.431 35.3135V12.8399H148.864V32.7461L146.296 30.1777V12.8399H143.727V27.6094L141.16 25.042V12.8399H128.958L126.389 10.2715H141.16V7.70412H123.822L121.254 5.13576H141.16V2.56837H118.686L116.118 1.52588e-05H154V37.8819ZM143.727 10.2715H146.296V7.70412H143.727V10.2715ZM148.864 10.2715H151.431V7.70412H148.864V10.2715ZM143.727 5.13576H146.296V2.56837H143.727V5.13576ZM148.864 5.13576H151.431V2.56837H148.864V5.13576Z" fill="black"/>
</svg>